<?xml version="1.0" encoding="iso-8859-1"?>
<!-- Generator: Adobe Illustrator 19.0.0, SVG Export Plug-In . SVG Version: 6.00 Build 0)  -->
<svg version="1.1" id="Layer_1" xmlns="http://www.w3.org/2000/svg" xmlns:xlink="http://www.w3.org/1999/xlink" x="0px" y="0px"
	 viewBox="0 0 512 512" style="enable-background:new 0 0 512 512;" xml:space="preserve">
<g>
	<g>
		<g>
			<path d="M512,187.733C512,84.215,427.785,0,324.267,0C236.435,0,162.51,60.632,142.12,142.236
				C59.452,162.914,0,238.589,0,324.267C0,427.785,84.215,512,187.733,512c85.675,0,161.347-59.448,182.029-142.119
				C451.367,349.491,512,275.566,512,187.733z M172.914,298.667h-23.507c2.554-7.219,6.184-13.911,10.785-19.792
				C164.026,285.748,168.277,292.357,172.914,298.667z M187.733,494.933c-94.106,0-170.667-76.561-170.667-170.667
				c0-75.16,50.318-141.857,121.386-163.319c-0.871,6.067-1.451,12.226-1.725,18.464c-0.893,0.315-1.788,0.624-2.673,0.954
				c-4.403,1.655-6.639,6.571-4.992,10.991c1.251,3.322,4.362,5.396,7.696,5.515c1.115,23.144,6.446,45.197,15.231,65.417
				c-9.611,10.092-16.61,22.606-20.489,36.377h-20.576c-4.719,0-8.533,3.823-8.533,8.533s3.814,8.533,8.533,8.533h17.453
				c-0.252,2.819-0.386,5.665-0.386,8.533c0,2.88,0.133,5.726,0.385,8.533h-17.452c-4.719,0-8.533,3.823-8.533,8.533
				s3.814,8.533,8.533,8.533h20.602c9.809,34.583,38.939,59.733,73.265,59.733c13.662,0,27.068-4.028,38.784-11.657
				c3.951-2.569,5.077-7.859,2.5-11.81c-2.569-3.942-7.851-5.069-11.802-2.492c-8.951,5.82-19.14,8.892-29.483,8.892
				c-25.012,0-46.475-17.676-55.358-42.667h29.758c4.719,0,8.533-3.823,8.533-8.533s-3.814-8.533-8.533-8.533h-33.65
				c-0.307-2.798-0.484-5.642-0.484-8.533c0-2.878,0.17-5.724,0.476-8.533h33.657c2.237,0,4.264-0.866,5.784-2.271
				c32.469,35.937,78.61,59.292,130.137,61.779c0.12,3.342,2.207,6.444,5.534,7.693c0.99,0.367,2.005,0.546,2.995,0.546
				c3.456,0,6.707-2.116,7.996-5.547c0.33-0.881,0.636-1.772,0.948-2.66c6.241-0.274,12.402-0.855,18.471-1.726
				C329.583,444.608,262.893,494.933,187.733,494.933z M362.027,354.183c-0.762,0.06-1.5,0.228-2.204,0.481
				c-10.466,2.227-21.282,3.491-32.354,3.696c-0.8-0.104-1.595-0.089-2.367,0.03c-0.279,0.001-0.556,0.011-0.836,0.011
				c-94.106,0-170.667-76.561-170.667-170.667c0-0.31,0.01-0.618,0.012-0.928c0.105-0.727,0.119-1.473,0.028-2.224
				c0.203-11.12,1.474-21.982,3.715-32.491c0.229-0.659,0.387-1.346,0.448-2.054c17.208-76.027,85.308-132.969,166.463-132.969
				c94.106,0,170.667,76.561,170.667,170.667C494.933,268.866,438.023,336.951,362.027,354.183z"/>
			<path d="M190.333,214.251c-0.896-4.625-5.419-7.646-10.01-6.741c-4.625,0.905-7.637,5.385-6.741,10.01
				c1.169,5.973,2.731,11.964,4.634,17.801c1.178,3.601,4.514,5.888,8.107,5.888c0.879,0,1.766-0.137,2.654-0.427
				c4.48-1.468,6.921-6.281,5.461-10.761C192.739,224.841,191.365,219.541,190.333,214.251z"/>
			<path d="M257.609,68.612c4.105-2.313,5.564-7.509,3.26-11.622c-2.313-4.113-7.509-5.572-11.631-3.26
				c-5.308,2.987-10.487,6.323-15.42,9.924c-3.806,2.782-4.634,8.124-1.86,11.921c1.673,2.295,4.267,3.507,6.903,3.507
				c1.741,0,3.507-0.538,5.018-1.647C248.265,74.227,252.882,71.266,257.609,68.612z"/>
			<path d="M212.698,266.347c-2.705-3.849-8.03-4.762-11.887-2.048c-3.857,2.722-4.77,8.047-2.048,11.895
				c3.516,4.975,7.373,9.796,11.46,14.327c1.681,1.869,4.002,2.825,6.332,2.825c2.048,0,4.087-0.725,5.717-2.202
				c3.499-3.157,3.78-8.55,0.623-12.049C219.261,275.059,215.83,270.776,212.698,266.347z"/>
			<path d="M179.094,181.218c0.299,0.034,0.589,0.043,0.879,0.043c4.318,0,8.03-3.268,8.482-7.654
				c0.563-5.427,1.451-10.837,2.645-16.085c1.05-4.599-1.826-9.173-6.417-10.223c-4.634-1.058-9.173,1.835-10.214,6.426
				c-1.348,5.922-2.364,12.015-2.995,18.133C170.988,176.542,174.401,180.732,179.094,181.218z"/>
			<path d="M194.284,122.782c1.34,0.777,2.807,1.143,4.258,1.143c2.953,0,5.82-1.527,7.398-4.267
				c2.714-4.693,5.734-9.276,8.994-13.619c2.825-3.772,2.057-9.122-1.715-11.947c-3.789-2.842-9.122-2.057-11.955,1.715
				c-3.644,4.881-7.049,10.035-10.103,15.317C188.797,115.204,190.196,120.427,194.284,122.782z"/>
			<path d="M352.346,54.106c5.325,1.118,10.624,2.569,15.744,4.309c0.922,0.307,1.843,0.461,2.748,0.461
				c3.558,0,6.878-2.236,8.09-5.794c1.51-4.463-0.879-9.31-5.333-10.82c-5.777-1.963-11.742-3.601-17.724-4.855
				c-4.608-0.99-9.148,1.98-10.112,6.596C344.794,48.61,347.738,53.133,352.346,54.106z"/>
			<path d="M293.833,54.413c0.589,0,1.195-0.06,1.801-0.188c5.291-1.135,10.718-1.963,16.128-2.449
				c4.685-0.427,8.149-4.582,7.723-9.276c-0.435-4.693-4.497-8.115-9.276-7.723c-6.084,0.555-12.194,1.485-18.159,2.756
				c-4.608,0.99-7.543,5.521-6.554,10.129C286.358,51.674,289.891,54.413,293.833,54.413z"/>
			<path d="M438.055,278.02c-3.49-3.14-8.9-2.85-12.049,0.666c-3.635,4.053-7.535,7.919-11.588,11.494
				c-3.533,3.123-3.874,8.508-0.759,12.049c1.681,1.911,4.045,2.893,6.4,2.893c2.005,0,4.019-0.7,5.641-2.133
				c4.565-4.019,8.943-8.371,13.022-12.919C441.87,286.562,441.562,281.161,438.055,278.02z"/>
			<path d="M476.984,171.217c-0.495-4.676-4.634-8.03-9.395-7.569c-4.693,0.503-8.073,4.71-7.569,9.395
				c0.512,4.855,0.777,9.796,0.777,14.694l-0.009,1.587c-0.06,4.71,3.695,8.585,8.414,8.661h0.119c4.659,0,8.474-3.738,8.533-8.414
				l0.009-1.835C477.863,182.234,477.565,176.678,476.984,171.217z"/>
			<path d="M457.494,138.893c1.135,0,2.27-0.222,3.371-0.7c4.326-1.86,6.323-6.886,4.471-11.213
				c-2.398-5.555-5.18-11.068-8.277-16.384c-2.381-4.07-7.612-5.444-11.674-3.072c-4.07,2.364-5.444,7.595-3.081,11.665
				c2.765,4.727,5.231,9.617,7.347,14.541C451.043,136.956,454.192,138.893,457.494,138.893z"/>
			<path d="M422.627,89.732c2.287,0,4.582-0.922,6.263-2.748c3.2-3.456,2.987-8.858-0.478-12.058
				c-4.48-4.147-9.25-8.055-14.191-11.631c-3.831-2.765-9.156-1.92-11.913,1.903c-2.765,3.814-1.92,9.148,1.903,11.913
				c4.386,3.183,8.627,6.665,12.621,10.351C418.471,88.981,420.553,89.732,422.627,89.732z"/>
			<path d="M268.797,312.486c-4.924-2.202-9.796-4.745-14.481-7.543c-4.045-2.415-9.284-1.109-11.708,2.944
				c-2.415,4.045-1.101,9.284,2.944,11.699c5.265,3.149,10.743,6.008,16.282,8.482c1.135,0.503,2.313,0.742,3.473,0.742
				c3.268,0,6.383-1.877,7.799-5.06C275.034,319.45,273.097,314.406,268.797,312.486z"/>
			<path d="M324.263,324.271c-5.427,0-10.914-0.333-16.299-0.973c-4.727-0.521-8.926,2.79-9.481,7.467
				c-0.563,4.685,2.782,8.926,7.467,9.489c6.05,0.717,12.22,1.084,18.313,1.084h0.597c4.71,0,8.243-3.823,8.243-8.533
				C333.104,328.085,328.982,324.271,324.263,324.271z"/>
			<path d="M465.021,223.979c-4.48-1.451-9.293,1.015-10.743,5.504c-1.664,5.154-3.652,10.274-5.931,15.206
				c-1.971,4.284-0.094,9.353,4.19,11.324c1.143,0.529,2.364,0.777,3.558,0.777c3.234,0,6.315-1.835,7.757-4.958
				c2.56-5.555,4.796-11.315,6.673-17.118C471.967,230.225,469.501,225.421,465.021,223.979z"/>
			<path d="M380.259,312.247c-4.932,2.227-10.061,4.181-15.249,5.811c-4.497,1.417-6.997,6.204-5.581,10.692
				c1.135,3.652,4.506,5.99,8.141,5.99c0.836,0,1.707-0.137,2.551-0.401c5.837-1.826,11.614-4.028,17.152-6.528
				c4.301-1.946,6.212-6.997,4.267-11.298C389.603,312.23,384.543,310.302,380.259,312.247z"/>
			<path d="M102.647,206.561c-2.987-3.661-8.363-4.198-12.006-1.212c-5.18,4.241-10.129,8.858-14.711,13.722
				c-3.217,3.43-3.055,8.832,0.367,12.066c1.656,1.545,3.755,2.313,5.854,2.313c2.27,0,4.531-0.896,6.221-2.688
				c4.062-4.326,8.465-8.431,13.073-12.194C105.088,215.581,105.634,210.205,102.647,206.561z"/>
			<path d="M46.49,290.077c0.836,0.256,1.672,0.375,2.492,0.375c3.661,0,7.04-2.372,8.158-6.05c1.724-5.649,3.857-11.273,6.34-16.7
				c1.954-4.284,0.068-9.353-4.224-11.307c-4.301-1.963-9.336-0.068-11.298,4.216c-2.79,6.11-5.197,12.442-7.134,18.816
				C39.45,283.933,41.984,288.703,46.49,290.077z"/>
			<path d="M52.997,346.455c-0.956-5.862-1.536-11.844-1.724-17.784c-0.145-4.719-3.951-8.414-8.798-8.26
				c-4.71,0.145-8.405,4.079-8.269,8.789c0.222,6.69,0.87,13.423,1.963,20.019c0.683,4.181,4.301,7.151,8.405,7.151
				c0.461,0,0.922-0.034,1.391-0.111C50.616,355.492,53.765,351.106,52.997,346.455z"/>
			<path d="M67.325,388.593c-2.236-4.139-7.364-5.717-11.554-3.473c-4.156,2.227-5.709,7.398-3.482,11.554
				c3.149,5.862,6.733,11.605,10.641,17.05c1.673,2.321,4.284,3.558,6.946,3.558c1.724,0,3.456-0.521,4.966-1.596
				c3.823-2.748,4.71-8.081,1.954-11.913C73.315,398.918,70.124,393.815,67.325,388.593z"/>
			<path d="M183.421,460.733c-5.982-0.188-11.972-0.768-17.801-1.724c-4.668-0.768-9.037,2.398-9.805,7.049
				c-0.759,4.642,2.389,9.037,7.049,9.796c6.562,1.075,13.295,1.732,20.011,1.937c0.102,0.009,0.188,0.009,0.282,0.009
				c4.582,0,8.38-3.644,8.516-8.26C191.826,464.829,188.131,460.887,183.421,460.733z"/>
			<path d="M305.405,409.371c-3.652-2.978-9.028-2.432-11.998,1.22c-3.738,4.591-7.851,8.986-12.203,13.073
				c-3.43,3.234-3.584,8.627-0.367,12.066c1.69,1.783,3.951,2.688,6.221,2.688c2.099,0,4.198-0.768,5.854-2.321
				c4.89-4.599,9.506-9.549,13.713-14.711C309.612,417.725,309.065,412.358,305.405,409.371z"/>
			<path d="M123.482,444.716c-5.231-2.807-10.342-5.99-15.172-9.455c-3.84-2.756-9.165-1.877-11.913,1.954
				c-2.748,3.831-1.869,9.165,1.963,11.913c5.436,3.9,11.17,7.475,17.058,10.624c1.28,0.691,2.662,1.015,4.019,1.015
				c3.046,0,5.999-1.638,7.535-4.506C129.2,452.106,127.63,446.935,123.482,444.716z"/>
			<path d="M244.255,448.539c-5.376,2.466-10.999,4.599-16.7,6.332c-4.506,1.382-7.049,6.153-5.666,10.658
				c1.118,3.678,4.506,6.042,8.158,6.042c0.828,0,1.664-0.119,2.492-0.367c6.417-1.963,12.749-4.369,18.816-7.142
				c4.284-1.963,6.17-7.031,4.215-11.315C253.607,448.463,248.547,446.551,244.255,448.539z"/>
			<path d="M349.867,119.467c10.351,0,20.54,3.072,29.483,8.892c3.951,2.577,9.233,1.459,11.81-2.492
				c2.577-3.951,1.459-9.233-2.492-11.802c-11.716-7.629-25.131-11.665-38.801-11.665c-34.326,0-63.456,25.15-73.265,59.733H256
				c-4.719,0-8.533,3.823-8.533,8.533s3.814,8.533,8.533,8.533h17.452c-0.252,2.807-0.385,5.653-0.385,8.533
				s0.133,5.726,0.385,8.533H256c-4.719,0-8.533,3.823-8.533,8.533c0,4.71,3.814,8.533,8.533,8.533h20.602
				c9.809,34.583,38.939,59.733,73.265,59.733c13.662,0,27.068-4.028,38.784-11.656c3.951-2.569,5.077-7.859,2.5-11.81
				c-2.56-3.934-7.851-5.069-11.802-2.492c-8.951,5.82-19.14,8.892-29.483,8.892c-25.012,0-46.475-17.676-55.358-42.667h29.758
				c4.719,0,8.533-3.823,8.533-8.533c0-4.71-3.814-8.533-8.533-8.533h-33.65c-0.307-2.798-0.484-5.642-0.484-8.533
				s0.177-5.735,0.484-8.533h33.65c4.719,0,8.533-3.823,8.533-8.533s-3.814-8.533-8.533-8.533h-29.758
				C303.391,137.143,324.855,119.467,349.867,119.467z"/>
		</g>
	</g>
</g>
<g>
</g>
<g>
</g>
<g>
</g>
<g>
</g>
<g>
</g>
<g>
</g>
<g>
</g>
<g>
</g>
<g>
</g>
<g>
</g>
<g>
</g>
<g>
</g>
<g>
</g>
<g>
</g>
<g>
</g>
</svg>
