<?xml version="1.0" encoding="UTF-8"?>
<svg xmlns="http://www.w3.org/2000/svg" xmlns:xlink="http://www.w3.org/1999/xlink" width="60pt" height="60pt" viewBox="0 0 60 60" version="1.1">
<g id="surface1">
<path style=" stroke:none;fill-rule:nonzero;fill:rgb(0%,0%,0%);fill-opacity:1;" d="M 57.707031 17.03125 L 52.316406 13.4375 L 49.613281 7.128906 C 49.53125 6.941406 49.386719 6.78125 49.207031 6.679688 L 40.769531 1.992188 C 40.628906 1.914062 40.472656 1.875 40.3125 1.875 L 24.375 1.875 C 24.214844 1.875 24.058594 1.914062 23.917969 1.992188 L 15.480469 6.679688 C 15.300781 6.78125 15.15625 6.941406 15.074219 7.128906 L 12.261719 13.691406 C 12.214844 13.808594 12.1875 13.933594 12.1875 14.0625 L 12.1875 18.75 L 10.3125 18.75 L 10.3125 16.875 L 8.4375 16.875 L 8.4375 18.75 L 5.625 18.75 L 5.625 16.875 L 3.75 16.875 L 3.75 18.75 L 1.875 18.75 L 1.875 20.625 L 3.75 20.625 L 3.75 22.5 L 1.875 22.5 L 1.875 24.375 L 57.1875 24.375 C 57.707031 24.375 58.125 23.957031 58.125 23.4375 L 58.125 17.8125 C 58.125 17.5 57.96875 17.207031 57.707031 17.03125 Z M 36.5625 15.8125 L 40.3125 18.3125 L 40.3125 22.5 L 36.5625 22.5 Z M 42.1875 18.75 L 50.625 18.75 L 50.625 22.5 L 42.1875 22.5 Z M 41.535156 16.875 L 38.722656 15 L 51.277344 15 L 54.089844 16.875 Z M 50.140625 13.125 L 36.242188 13.125 L 34.234375 8.4375 L 48.132812 8.4375 Z M 40.070312 3.75 L 45.132812 6.5625 L 33.054688 6.5625 L 27.992188 3.75 Z M 16.671875 8.164062 L 24.375 3.886719 L 32.078125 8.164062 L 34.6875 14.253906 L 34.6875 22.5 L 29.0625 22.5 L 29.0625 15.9375 C 29.0625 15.417969 28.644531 15 28.125 15 L 20.625 15 C 20.105469 15 19.6875 15.417969 19.6875 15.9375 L 19.6875 22.5 L 14.0625 22.5 L 14.0625 14.253906 Z M 25.3125 16.875 L 27.1875 16.875 L 27.1875 22.5 L 25.3125 22.5 Z M 23.4375 22.5 L 21.5625 22.5 L 21.5625 16.875 L 23.4375 16.875 Z M 12.1875 20.625 L 12.1875 22.5 L 10.3125 22.5 L 10.3125 20.625 Z M 5.625 20.625 L 8.4375 20.625 L 8.4375 22.5 L 5.625 22.5 Z M 52.5 22.5 L 52.5 18.75 L 56.25 18.75 L 56.25 22.5 Z M 52.5 22.5 "/>
<path style=" stroke:none;fill-rule:nonzero;fill:rgb(0%,0%,0%);fill-opacity:1;" d="M 17.8125 9.375 L 19.6875 9.375 L 19.6875 11.25 L 17.8125 11.25 Z M 17.8125 9.375 "/>
<path style=" stroke:none;fill-rule:nonzero;fill:rgb(0%,0%,0%);fill-opacity:1;" d="M 29.0625 9.375 L 30.9375 9.375 L 30.9375 11.25 L 29.0625 11.25 Z M 29.0625 9.375 "/>
<path style=" stroke:none;fill-rule:nonzero;fill:rgb(0%,0%,0%);fill-opacity:1;" d="M 23.4375 5.625 L 25.3125 5.625 L 25.3125 7.5 L 23.4375 7.5 Z M 23.4375 5.625 "/>
<path style=" stroke:none;fill-rule:nonzero;fill:rgb(0%,0%,0%);fill-opacity:1;" d="M 13.125 43.125 C 11.570312 43.125 10.3125 44.382812 10.3125 45.9375 C 10.3125 47.492188 11.570312 48.75 13.125 48.75 C 14.679688 48.75 15.9375 47.492188 15.9375 45.9375 C 15.9375 44.386719 14.675781 43.125 13.125 43.125 Z M 13.125 46.875 C 12.605469 46.875 12.1875 46.457031 12.1875 45.9375 C 12.1875 45.417969 12.605469 45 13.125 45 C 13.644531 45 14.0625 45.417969 14.0625 45.9375 C 14.0625 46.453125 13.640625 46.875 13.125 46.875 Z M 13.125 46.875 "/>
<path style=" stroke:none;fill-rule:nonzero;fill:rgb(0%,0%,0%);fill-opacity:1;" d="M 33.75 47.8125 C 33.75 48.332031 33.332031 48.75 32.8125 48.75 C 32.292969 48.75 31.875 48.332031 31.875 47.8125 C 31.875 47.292969 32.292969 46.875 32.8125 46.875 C 33.332031 46.875 33.75 47.292969 33.75 47.8125 Z M 33.75 47.8125 "/>
<path style=" stroke:none;fill-rule:nonzero;fill:rgb(0%,0%,0%);fill-opacity:1;" d="M 37.5 47.8125 C 37.496094 45.949219 36.394531 44.265625 34.6875 43.519531 L 34.6875 39.375 C 34.6875 38.910156 34.34375 38.511719 33.882812 38.445312 L 32.8125 38.292969 L 32.8125 35.625 L 30.9375 35.625 L 30.9375 38.027344 L 27.320312 37.507812 C 27.050781 37.472656 26.777344 37.550781 26.574219 37.730469 C 26.550781 37.75 26.527344 37.773438 26.507812 37.792969 L 25.582031 37.179688 L 26.152344 36.042969 L 24.472656 35.207031 L 22.597656 38.957031 L 24.277344 39.792969 L 24.738281 38.867188 L 26.25 39.875 L 26.25 42.1875 L 21.714844 42.1875 C 21.5625 41.832031 21.386719 41.492188 21.1875 41.160156 L 19.667969 33.566406 C 19.582031 33.128906 19.195312 32.8125 18.75 32.8125 L 15 32.8125 C 14.480469 32.8125 14.0625 33.230469 14.0625 33.75 L 14.0625 36.609375 C 13.75 36.578125 13.4375 36.5625 13.125 36.5625 C 12.058594 36.5625 11.003906 36.742188 10 37.097656 L 10.625 38.863281 C 11.429688 38.582031 12.273438 38.4375 13.125 38.4375 C 15.722656 38.433594 18.136719 39.777344 19.503906 41.988281 C 19.785156 42.445312 20.019531 42.929688 20.199219 43.4375 C 20.667969 44.777344 20.753906 46.222656 20.4375 47.605469 C 20.375 47.882812 20.441406 48.175781 20.621094 48.398438 C 20.796875 48.621094 21.066406 48.75 21.351562 48.75 L 28.21875 48.75 C 28.359375 49.429688 28.648438 50.070312 29.066406 50.625 L 17.710938 50.625 C 19.621094 48.761719 20.210938 45.925781 19.203125 43.453125 C 18.195312 40.984375 15.792969 39.367188 13.125 39.367188 C 10.457031 39.367188 8.054688 40.984375 7.046875 43.453125 C 6.039062 45.925781 6.628906 48.761719 8.539062 50.625 L 1.875 50.625 L 1.875 52.5 L 58.125 52.5 L 58.125 50.625 L 36.558594 50.625 C 37.171875 49.816406 37.5 48.828125 37.5 47.8125 Z M 8.4375 45.9375 C 8.4375 43.347656 10.535156 41.25 13.125 41.25 C 15.714844 41.25 17.8125 43.347656 17.8125 45.9375 C 17.8125 48.527344 15.714844 50.625 13.125 50.625 C 10.539062 50.621094 8.441406 48.523438 8.4375 45.9375 Z M 15.9375 36.996094 L 15.9375 34.6875 L 17.980469 34.6875 L 18.730469 38.429688 C 17.886719 37.800781 16.941406 37.3125 15.9375 36.996094 Z M 22.3125 44.0625 L 27.1875 44.0625 C 27.707031 44.0625 28.125 43.644531 28.125 43.125 L 28.125 39.519531 L 32.8125 40.1875 L 32.8125 43.125 C 30.585938 43.128906 28.667969 44.695312 28.21875 46.875 L 22.453125 46.875 C 22.484375 46.5625 22.5 46.25 22.5 45.9375 C 22.5 45.308594 22.4375 44.679688 22.3125 44.0625 Z M 30 47.8125 C 30 46.257812 31.257812 45 32.8125 45 C 34.367188 45 35.625 46.257812 35.625 47.8125 C 35.625 49.367188 34.367188 50.625 32.8125 50.625 C 31.261719 50.625 30 49.363281 30 47.8125 Z M 30 47.8125 "/>
<path style=" stroke:none;fill-rule:nonzero;fill:rgb(0%,0%,0%);fill-opacity:1;" d="M 1.875 56.25 L 58.125 56.25 L 58.125 58.125 L 1.875 58.125 Z M 1.875 56.25 "/>
<path style=" stroke:none;fill-rule:nonzero;fill:rgb(0%,0%,0%);fill-opacity:1;" d="M 1.875 28.125 L 58.125 28.125 L 58.125 30 L 1.875 30 Z M 1.875 28.125 "/>
<path style=" stroke:none;fill-rule:nonzero;fill:rgb(0%,0%,0%);fill-opacity:1;" d="M 34.6875 33.75 L 58.125 33.75 L 58.125 35.625 L 34.6875 35.625 Z M 34.6875 33.75 "/>
<path style=" stroke:none;fill-rule:nonzero;fill:rgb(0%,0%,0%);fill-opacity:1;" d="M 1.875 33.75 L 12.1875 33.75 L 12.1875 35.625 L 1.875 35.625 Z M 1.875 33.75 "/>
<path style=" stroke:none;fill-rule:nonzero;fill:rgb(0%,0%,0%);fill-opacity:1;" d="M 36.5625 39.375 L 58.125 39.375 L 58.125 41.25 L 36.5625 41.25 Z M 36.5625 39.375 "/>
<path style=" stroke:none;fill-rule:nonzero;fill:rgb(0%,0%,0%);fill-opacity:1;" d="M 1.875 39.375 L 6.5625 39.375 L 6.5625 41.25 L 1.875 41.25 Z M 1.875 39.375 "/>
<path style=" stroke:none;fill-rule:nonzero;fill:rgb(0%,0%,0%);fill-opacity:1;" d="M 39.375 45 L 58.125 45 L 58.125 46.875 L 39.375 46.875 Z M 39.375 45 "/>
<path style=" stroke:none;fill-rule:nonzero;fill:rgb(0%,0%,0%);fill-opacity:1;" d="M 1.875 45 L 4.6875 45 L 4.6875 46.875 L 1.875 46.875 Z M 1.875 45 "/>
</g>
</svg>
