<?xml version="1.0" encoding="UTF-8" standalone="no" ?>
<!DOCTYPE svg PUBLIC "-//W3C//DTD SVG 1.1//EN" "http://www.w3.org/Graphics/SVG/1.1/DTD/svg11.dtd">
<svg xmlns="http://www.w3.org/2000/svg" xmlns:xlink="http://www.w3.org/1999/xlink" version="1.1" width="500" height="100" viewBox="0 0 384.62 76.92" xml:space="preserve">
<desc>Created with Fabric.js 3.6.3</desc>
<defs>
</defs>
<g transform="matrix(2.72 0 0 2.72 192.2 40.37)" style=""  >
		<text xml:space="preserve" font-family="'Open Sans', sans-serif" font-size="18" font-style="normal" font-weight="normal" style="stroke: none; stroke-width: 1; stroke-dasharray: none; stroke-linecap: butt; stroke-dashoffset: 0; stroke-linejoin: miter; stroke-miterlimit: 4; fill: rgb(0,0,0); fill-rule: nonzero; opacity: 1; white-space: pre;" ><tspan x="-65.61" y="5.65" >06 87 26 09 81</tspan></text>
</g>
<g transform="matrix(-0.09 0.08 -0.08 -0.09 180.51 48.4)"  >
<path style="stroke: none; stroke-width: 1; stroke-dasharray: none; stroke-linecap: butt; stroke-dashoffset: 0; stroke-linejoin: miter; stroke-miterlimit: 4; fill: rgb(0,0,0); fill-rule: nonzero; opacity: 1;"  transform=" translate(-500.12, -500.15)" d="M 985.9 753.7 c -6.3 -14.4 -19.7 -23.1 -36.6 -33.1 c -54.8 -32.3 -110.9 -64.5 -165.1 -95.6 l -4.2 -2.4 c -13.8 -7.9 -24.6 -11.5 -35.1 -11.5 c -18.6 0 -32.2 11.4 -42 21.4 c -16.9 17.2 -32.9 35.5 -48.4 53.2 c -6.2 7.1 -12.6 14.4 -18.9 21.5 c -16.3 18.3 -23.8 24.5 -29.6 24.5 c -7.1 0 -20.7 -7 -33.9 -14.1 c -124.1 -67.2 -216.4 -157.3 -282 -275.6 c -14.8 -26.6 -23.6 -43.4 -21.9 -52.7 c 1.7 -9.6 17.5 -23.1 39.5 -41 c 18 -14.6 38.4 -31.2 56.9 -49.6 c 27.4 -27.3 29.9 -49.1 9.6 -83.5 c -4.6 -7.8 -9.3 -15.6 -13.9 -23.3 c -7.5 -12.6 -15.3 -25.5 -22.7 -38.3 c -7.3 -12.5 -14.7 -25.4 -21.8 -37.8 c -15.2 -26.5 -30.9 -53.8 -47.1 -80.4 c -5.2 -8.5 -19.5 -24.6 -36.5 -25 c -3.2 -0.1 -6.4 -0.1 -9.4 -0.1 c -41.5 0 -94 5.2 -131.9 45.9 c -29.4 31.6 -51.1 66.5 -64.5 103.8 c -13.8 38.5 -18.8 79.7 -14.8 122.3 c 7.2 77.2 38.2 146.5 64.3 198.2 C 139.4 606.4 221 712 318.1 794.5 c 99.6 84.5 218 146.6 352.1 184.8 c 16.9 4.8 33.8 6.9 47.3 8.7 c 4.9 0.6 9.2 1.2 12.6 1.7 l 1.5 0.3 l 1.5 0 c 58 -0.7 101.8 -17.3 138.3 -32.9 c 34.3 -14.6 61.4 -34.9 80.7 -60.5 c 19.5 -25.8 31.5 -57.6 35.7 -94.6 C 990.4 780.4 991.6 766.6 985.9 753.7 z M 953.6 798 c -7 61.2 -38.3 102.8 -95.6 127.1 c -34.6 14.7 -72.7 29.2 -123.7 30.1 c -3.7 -0.6 -7.9 -1.1 -12.3 -1.7 c -12.4 -1.6 -27.9 -3.5 -42.2 -7.6 c -255.6 -72.7 -448.4 -234.6 -573.1 -481.2 c -24.8 -49 -54.1 -114.4 -60.8 -185.8 c -7 -74.7 16.6 -141.8 70.2 -199.3 c 22.5 -24.1 55.3 -34.9 106.6 -34.9 c 2.5 0 5.1 0 7.8 0.1 c 2.1 1 6.4 4.7 8.6 8.4 c 16 26.2 31.6 53.4 46.7 79.7 c 7.1 12.4 14.5 25.3 21.9 37.9 c 7.6 13 15.4 26.1 23 38.7 c 4.6 7.7 9.2 15.4 13.8 23.2 c 6.3 10.6 9 17.8 8.5 22.5 c -0.3 3 -1.9 8.1 -12.7 18.9 c -17.3 17.2 -36.9 33.2 -54.3 47.3 c -29.5 24 -47.9 39.8 -51.8 61.8 c -3.8 21 6.8 41.4 25.7 75.6 c 34.4 62.1 77.2 118.1 126.9 166.4 c 48.6 47.2 105.4 88.5 168.9 122.8 c 19.8 10.7 35 18.3 50.3 18.3 c 21.6 0 36.6 -14.9 55.4 -36.1 c 6.4 -7.2 12.9 -14.6 19.1 -21.7 c 15.2 -17.3 30.8 -35.2 47 -51.7 c 9.6 -9.8 14.3 -11 17.3 -11 c 4 0 9.9 2.2 17.9 6.9 l 4.2 2.4 c 54.1 31.1 110.1 63.2 164.8 95.4 c 12.5 7.4 20.6 12.8 22.5 17.2 C 956.3 772.3 955.3 782.7 953.6 798 z" stroke-linecap="round" />
</g>
</svg>