<?xml version="1.0" encoding="UTF-8"?>
<svg xmlns="http://www.w3.org/2000/svg" xmlns:xlink="http://www.w3.org/1999/xlink" width="60pt" height="60pt" viewBox="0 0 60 60" version="1.1">
<g id="surface1">
<path style=" stroke:none;fill-rule:nonzero;fill:rgb(0%,0%,0%);fill-opacity:1;" d="M 10.96875 15.078125 C 9.71875 16.570312 8.980469 18.425781 8.859375 20.367188 C 8.746094 23.753906 10.960938 26.652344 13.078125 28.238281 C 14.9375 29.511719 16.9375 30.566406 19.039062 31.382812 C 20.136719 31.863281 21.265625 32.355469 22.386719 32.917969 C 26.546875 34.9375 30.195312 37.875 33.0625 41.507812 C 33.8125 42.464844 34.492188 43.464844 35.148438 44.429688 C 36.195312 46.15625 37.476562 47.726562 38.957031 49.09375 C 40.199219 50.085938 41.742188 50.625 43.335938 50.613281 C 44.597656 50.609375 45.839844 50.300781 46.957031 49.714844 C 48.707031 48.742188 50.199219 47.363281 51.304688 45.691406 C 52.21875 44.363281 52.960938 42.921875 53.507812 41.402344 C 54.878906 37.347656 55.378906 33.050781 54.976562 28.792969 C 54.050781 16.695312 47.472656 6.898438 38.980469 4.972656 C 31.929688 3.375 23.5 5.847656 14.03125 12.265625 C 13.710938 12.480469 13.382812 12.726562 13.019531 13.019531 L 12.5625 13.394531 C 11.988281 13.914062 11.457031 14.476562 10.96875 15.078125 Z M 13.839844 14.882812 L 14.253906 14.546875 C 14.566406 14.292969 14.847656 14.082031 15.125 13.890625 C 22.398438 8.960938 28.964844 6.460938 34.640625 6.460938 C 35.953125 6.460938 37.261719 6.601562 38.542969 6.886719 C 46.199219 8.628906 52.152344 17.695312 53.015625 28.941406 C 53.394531 32.921875 52.933594 36.933594 51.65625 40.722656 C 51.167969 42.082031 50.507812 43.375 49.6875 44.566406 C 48.765625 45.976562 47.515625 47.140625 46.050781 47.964844 C 44.183594 48.988281 41.890625 48.828125 40.183594 47.554688 C 38.863281 46.304688 37.714844 44.882812 36.773438 43.324219 C 36.097656 42.332031 35.398438 41.308594 34.609375 40.300781 C 31.566406 36.4375 27.6875 33.3125 23.265625 31.160156 C 22.097656 30.570312 20.941406 30.070312 19.820312 29.585938 C 17.859375 28.824219 15.992188 27.84375 14.25 26.664062 C 12.535156 25.382812 10.730469 23.070312 10.824219 20.4375 C 10.929688 18.921875 11.515625 17.480469 12.496094 16.320312 C 12.90625 15.808594 13.355469 15.328125 13.839844 14.882812 Z M 13.839844 14.882812 "/>
<path style=" stroke:none;fill-rule:nonzero;fill:rgb(0%,0%,0%);fill-opacity:1;" d="M 5.902344 35.828125 C 8.046875 37.328125 10.363281 38.570312 12.796875 39.527344 C 13.855469 39.992188 14.949219 40.46875 15.992188 40.992188 C 19.699219 42.796875 22.953125 45.417969 25.511719 48.652344 C 26.191406 49.527344 26.84375 50.488281 27.480469 51.421875 C 28.753906 53.523438 30.332031 55.425781 32.164062 57.066406 C 34.148438 58.65625 36.613281 59.515625 39.152344 59.507812 C 39.84375 59.507812 40.535156 59.445312 41.21875 59.320312 C 43.148438 58.929688 44.929688 58.011719 46.363281 56.664062 C 48.839844 54.429688 53.195312 50.316406 54.585938 47.867188 L 54.585938 47.859375 C 55.664062 46.277344 56.539062 44.566406 57.191406 42.765625 C 58.757812 38.183594 59.339844 33.324219 58.890625 28.503906 C 57.824219 14.472656 50.164062 3.476562 39.847656 1.136719 C 31.683594 -0.71875 22.257812 1.933594 11.820312 9.003906 C 11.707031 9.082031 11.59375 9.167969 11.480469 9.246094 C 11.472656 9.25 11.464844 9.253906 11.460938 9.253906 C 8.414062 11.4375 5.59375 13.921875 3.039062 16.664062 C 1.21875 18.867188 0.15625 21.597656 0.0078125 24.453125 C -0.164062 29.449219 2.9375 33.605469 5.902344 35.828125 Z M 39.410156 3.050781 C 50.355469 5.535156 56.097656 17.695312 56.933594 28.640625 C 57.359375 33.183594 56.820312 37.765625 55.347656 42.082031 C 54.746094 43.757812 53.929688 45.351562 52.917969 46.820312 C 51.632812 48.75 49.898438 50.34375 47.863281 51.460938 C 44.621094 53.238281 40.636719 52.910156 37.730469 50.628906 C 36.089844 49.144531 34.671875 47.433594 33.523438 45.539062 C 32.882812 44.601562 32.222656 43.628906 31.515625 42.726562 C 28.828125 39.324219 25.410156 36.574219 21.507812 34.679688 C 20.425781 34.140625 19.324219 33.65625 18.253906 33.1875 C 16.011719 32.3125 13.878906 31.179688 11.902344 29.8125 C 9.386719 27.933594 6.75 24.445312 6.894531 20.296875 C 7.023438 17.925781 7.917969 15.65625 9.441406 13.835938 C 10.003906 13.140625 10.617188 12.492188 11.273438 11.894531 L 11.777344 11.488281 C 12.179688 11.164062 12.554688 10.886719 12.921875 10.636719 C 20.875 5.246094 28.15625 2.53125 34.640625 2.53125 C 36.246094 2.527344 37.84375 2.699219 39.410156 3.050781 Z M 4.523438 17.949219 C 4.535156 17.9375 4.917969 17.527344 5.542969 16.894531 C 5.179688 17.972656 4.972656 19.097656 4.925781 20.230469 C 4.757812 25.132812 7.808594 29.214844 10.722656 31.386719 C 12.820312 32.847656 15.085938 34.054688 17.464844 34.988281 C 18.511719 35.445312 19.597656 35.921875 20.628906 36.4375 C 24.265625 38.199219 27.457031 40.761719 29.960938 43.933594 C 30.628906 44.785156 31.273438 45.730469 31.898438 46.648438 C 33.152344 48.699219 34.699219 50.558594 36.492188 52.164062 C 38.441406 53.710938 40.863281 54.550781 43.355469 54.535156 C 44.292969 54.535156 45.230469 54.421875 46.140625 54.195312 C 45.78125 54.527344 45.425781 54.855469 45.046875 55.199219 C 43.882812 56.300781 42.4375 57.054688 40.867188 57.382812 C 38.226562 57.898438 35.488281 57.222656 33.390625 55.535156 C 31.714844 54.015625 30.269531 52.253906 29.101562 50.316406 C 28.453125 49.359375 27.78125 48.371094 27.066406 47.445312 C 24.328125 43.980469 20.84375 41.171875 16.871094 39.234375 C 15.785156 38.691406 14.664062 38.199219 13.585938 37.726562 C 11.289062 36.828125 9.105469 35.664062 7.082031 34.257812 C 4.515625 32.332031 1.824219 28.761719 1.972656 24.519531 C 2.101562 22.113281 2.996094 19.8125 4.523438 17.949219 Z M 4.523438 17.949219 "/>
<path style=" stroke:none;fill-rule:nonzero;fill:rgb(0%,0%,0%);fill-opacity:1;" d="M 34.371094 25.171875 C 35.769531 25.75 37.265625 26.054688 38.78125 26.066406 C 40.101562 26.082031 41.40625 25.796875 42.597656 25.234375 C 44.230469 24.476562 45.457031 23.054688 45.972656 21.332031 C 47.164062 17.226562 44.007812 12.21875 38.9375 10.164062 C 36.324219 8.992188 33.339844 8.964844 30.710938 10.097656 C 29.078125 10.855469 27.851562 12.277344 27.335938 14 C 26.144531 18.109375 29.296875 23.113281 34.371094 25.171875 Z M 29.226562 14.558594 C 29.582031 13.363281 30.4375 12.382812 31.574219 11.871094 C 32.5 11.441406 33.511719 11.230469 34.53125 11.246094 C 35.792969 11.257812 37.039062 11.511719 38.207031 11.992188 C 42.367188 13.675781 45.007812 17.621094 44.089844 20.785156 C 43.734375 21.976562 42.878906 22.957031 41.746094 23.46875 C 39.613281 24.339844 37.214844 24.296875 35.113281 23.347656 C 30.945312 21.660156 28.304688 17.714844 29.226562 14.558594 Z M 29.226562 14.558594 "/>
<path style=" stroke:none;fill-rule:nonzero;fill:rgb(0%,0%,0%);fill-opacity:1;" d="M 35.644531 20.777344 C 36.640625 21.191406 37.703125 21.410156 38.78125 21.421875 C 39.601562 21.4375 40.414062 21.273438 41.164062 20.9375 C 41.667969 20.738281 42.066406 20.332031 42.253906 19.824219 C 42.332031 19.058594 42.105469 18.292969 41.628906 17.691406 C 40.648438 16.273438 39.269531 15.183594 37.664062 14.558594 C 35.921875 13.753906 33.925781 13.695312 32.140625 14.398438 C 31.640625 14.597656 31.246094 15 31.058594 15.507812 C 30.746094 16.585938 32.25 19.402344 35.644531 20.777344 Z M 36.925781 16.386719 C 38.15625 16.855469 39.214844 17.683594 39.972656 18.761719 C 40.066406 18.902344 40.148438 19.054688 40.21875 19.207031 C 38.953125 19.609375 37.585938 19.519531 36.382812 18.957031 C 34.976562 18.449219 33.804688 17.445312 33.085938 16.132812 C 34.351562 15.730469 35.722656 15.820312 36.921875 16.386719 Z M 36.925781 16.386719 "/>
</g>
</svg>
